# xmcd
#
# Track frame offsets: 
#        150
#        20762
#        38497
#        53260
#        75165
#        94067
#        108305
#        127585
#        143407
#        166145
#        181665
#
# Disc length: 2611 seconds
#
# Revision: 1
# Processed by: cddbd v1.5.2PL0 Copyright (c) Steve Scherf et al.
# Submitted via: ExactAudioCopy v0.99pb4
#
DISCID=680a310b
DTITLE=Анатолий Полотно - В Мелодиях И Красках. Часть 1
DYEAR=1995
DGENRE=Chanson
TTITLE0=Черная Кобра
TTITLE1=Баба Люба
TTITLE2=Вера Королёва
TTITLE3=Сказочки Синдбада
TTITLE4=Жемчужинка
TTITLE5=Сестрички
TTITLE6=Город Спит
TTITLE7=Лёнька Пантелеев
TTITLE8=Ветер Северный
TTITLE9=Заворачиваю Кеды
TTITLE10=Ой, Лёли-Лёли
EXTD=
EXTT0=сл. Ан.Полотно/муз. Ан.Полотно, С.Мотин
EXTT1=сл. Ан.Полотно/муз. Ан.Полотно, С.Мотин
EXTT2=сл. Ан.Полотно/муз. Ан.Полотно
EXTT3=сл. Ан.Полотно/муз. Ан.Полотно
EXTT4=сл. Ан.Полотно/муз. Ан.Полотно
EXTT5=сл. Ан.Полотно/муз. Ан.Полотно, С.Мотин
EXTT6=сл. Ан.Полотно/муз. Ан.Полотно
EXTT7=сл. Ан.Полотно/муз. Ан.Полотно, С.Мотин
EXTT8=сл. Ан.Полотно/муз. Ан.Полотно, С.Мотин
EXTT9=сл. Ан.Полотно/муз. Ан.Полотно, С.Мотин
EXTT10=сл. Ан.Полотно, В.Батенков/муз. Ан.Полотно
PLAYORDER=
